<?xml version="1.0" encoding="UTF-8"?>
<!DOCTYPE svg PUBLIC "-//W3C//DTD SVG 1.1//EN" "http://www.w3.org/Graphics/SVG/1.1/DTD/svg11.dtd">
<!-- Creator: CorelDRAW 2018 (64 Bit) -->
<svg xmlns="http://www.w3.org/2000/svg" xml:space="preserve" width="210mm" height="297mm" version="1.1" style="shape-rendering:geometricPrecision; text-rendering:geometricPrecision; image-rendering:optimizeQuality; fill-rule:evenodd; clip-rule:evenodd"
viewBox="8400 3800 3500 2800"
 xmlns:xlink="http://www.w3.org/1999/xlink">
 <defs>
  <style type="text/css">
   <![CDATA[
    .fil0 {fill:#373435}
    .fil1 {fill:#373435;fill-rule:nonzero}
   ]]>
  </style>
 </defs>
 <g id="Capa_x0020_1">
  <metadata id="CorelCorpID_0Corel-Layer"/>
  <g id="_3083254709520">
   <path class="fil0" d="M8941.99 6116.81c4.12,-221.59 -1.8,-435.24 -20.28,-664.76 4.89,-56.24 35.26,-133.17 103.51,-129.05l327.71 7.89c240.62,29.85 388.64,431.99 6.79,560.12 -73.28,-0.02 -177.99,-3.86 -254.97,-3.47 -1.46,79.73 -2.07,158.56 -2.76,236.03 -53.34,-2.26 -106.67,-4.51 -160,-6.76zm1311.78 -239.3c48.39,-525.97 -671.61,-419.25 -599.25,-11.46l-0.13 0c1.53,224.07 380.5,397.45 563.43,128.03 -32.3,-15.77 -69.1,-34.93 -101.4,-50.7 -63.57,109.15 -289.23,114.33 -324.53,-65.87l461.88 0zm-461.37 -95.2c107.79,0 215.58,0 323.36,0 -6.92,-101.62 -78.08,-149.41 -157.73,-148.71 -90.84,1.14 -152.85,47.23 -165.63,148.71zm-1936.54 -716.11c24.04,179.89 228.24,294.25 382.57,377.22 51.38,80.09 71.64,161.4 50.06,244.1 62.26,-172.99 -60.61,-225.91 -62.11,-297.72 -11.22,-31.37 -18.58,-60.16 -22.13,-86.3l-45.48 20.95c20.06,-16.94 35.03,-36.43 43.03,-59.42 0.12,-7.27 0.61,-14.27 1.46,-21.03 -38.97,-5.21 -65.28,-20.98 -76.04,-49.7 30.06,7.55 59.54,8.13 88.72,5.11l0.03 -0.07c-44.09,-15.15 -62.03,-44.84 -65.09,-82.78 33.14,26.55 69.76,41.82 114.92,29.3 60.78,-14.01 116.06,-22.52 119.44,20.86 40.12,-0.89 72.57,11.01 85.63,55.21 -119.59,-32.91 -185.75,89.61 -49.57,209.56 141.76,189.96 1.56,331.87 -216.33,406.74 7.11,-9.96 13.73,-19.63 19.97,-29.07 2.79,-113.2 -146.31,-135.13 -256.91,-189.98 45.66,8.03 80.52,2.5 117.17,-7.32 -141.4,-18.78 -232.1,-79.25 -265.9,-177.45 51.07,36.78 100.65,52.59 148.73,47.32 -140.6,-52.67 -192.17,-145.64 -173.52,-270.41 30,71.31 78.17,123.24 153.23,146.47 -178.03,-206.29 -83.65,-284.62 -91.88,-291.59zm469.16 793.31c-19.77,176.84 52.63,281.57 194.35,348.57 -47.42,8.45 -97.64,-2.82 -138.02,-25.35 43.42,62.91 193.89,51.17 132.39,222.52 8.49,-37.87 -46.45,-116.78 -113.56,-145.47 -89.58,-50.6 -187.3,-185.38 -75.16,-400.27zm8.4 -43.24c-186.89,109.37 -281.89,237.12 -168.25,406.59 -4.25,-58.1 0.02,-127.79 32.39,-159.14 -8.33,104.56 32.27,244.72 164.78,260.55 -149.07,-156.66 -137.58,-380.92 -28.92,-508zm322.23 -836.02c12.11,149.29 -63.55,271.34 -172.38,357.16 -19.9,15.02 -63.47,77.37 -14.65,102.53 39.22,59.5 50.18,131.28 20.28,220.83 66.1,-87.88 278.67,-101.4 272.66,-243.36 -25.72,30.04 -67.22,41.5 -99.14,42.81 226.84,-158.49 126.94,-247.12 112.66,-306.46 -11.52,76.43 -45.56,127.13 -99.14,155.48 126.19,-249.37 15.68,-250.8 -20.29,-328.99zm-319.98 185.91c8.08,0 14.64,6.56 14.64,14.65 0,8.08 -6.56,14.65 -14.64,14.65 -8.09,0 -14.65,-6.57 -14.65,-14.65 0,-8.09 6.56,-14.65 14.65,-14.65zm4086.45 367.47l0.08 586.87 138.9 0.92 4.07 -367.21c51.37,-51.86 67.97,-104.16 188.94,-102.19l2.24 -126.96c-113.92,2.48 -150.32,40.54 -206.26,108.84l-0.99 -100.97 -126.98 0.7zm-92.31 343.88c48.4,-525.97 -671.6,-419.25 -599.24,-11.46l-0.13 0c1.52,224.07 380.5,397.45 563.43,128.03 -32.3,-15.77 -69.11,-34.93 -101.4,-50.7 -63.58,109.15 -289.23,114.33 -324.54,-65.87l461.88 0zm-461.36 -95.2c107.79,0 215.58,0 323.36,0 -6.92,-101.62 -78.09,-149.41 -157.73,-148.71 -90.84,1.14 -152.86,47.23 -165.63,148.71zm-471.59 -115.75l-392.83 4.55 2.82 447.86c154.72,0.75 309.46,1.5 464.19,2.25 259.93,-43.99 254.83,-322.11 55.69,-416.06 237.08,-164.27 30.09,-390.97 -87.24,-379.38 -148.72,-2.26 -286.18,2.25 -434.9,0 -0.75,40.56 3.01,92.39 2.26,132.95 129.94,3.76 255.38,-3.75 385.32,0 112.03,16.23 121.58,164.04 4.51,202.8l0.18 5.03zm-245.23 112.72l-2.25 223.08 279.42 0c30.43,5.63 190.41,-126.19 -6.76,-223.08l-270.41 0zm-782.16 432.24c-15.03,35.3 -30.05,70.6 -45.07,105.91 86.38,38.31 208.81,85.63 313.22,-67.6 96.89,-239.61 193.79,-479.23 290.68,-718.83 -48.82,0 -97.64,0 -146.47,0 -54.34,146.48 -105.26,301.24 -157.78,452.11l-174.58 -450.99 -137.46 0 236.71 610.36c-65.71,147.93 -146.22,77.72 -179.25,69.04zm-1398.08 -752.05c18.37,-95.85 81.52,-105.49 110.42,0 -1.89,187.4 -19.54,364.67 -56.34,545.31 -31.55,-175.01 -54.08,-352.27 -54.08,-545.31zm56.96 -4.63c15.2,0 27.51,34.81 27.51,77.75 0,42.93 -12.31,77.74 -27.51,77.74 -15.2,0 -27.51,-34.81 -27.51,-77.74 0,-42.94 12.31,-77.75 27.51,-77.75zm98.02 -1.23c4.67,27.71 -9.69,260.82 -11.27,309.84l219.71 0c200.98,-96.01 83.1,-286.65 -2.1,-311.67 -68.02,0.6 -136.65,2.24 -206.34,1.83z"/>
   <path class="fil1" d="M11250.65 6228.75l30.54 0 0 132.89c0,23.15 -2.63,41.52 -7.83,55.13 -5.24,13.54 -14.67,24.64 -28.27,33.15 -13.66,8.52 -31.5,12.8 -53.68,12.8 -21.47,0 -39.1,-3.7 -52.75,-11.13 -13.72,-7.45 -23.46,-18.17 -29.31,-32.25 -5.84,-14.09 -8.78,-33.33 -8.78,-57.7l0 -132.89 30.54 0 0 132.85c0,19.98 1.87,34.76 5.56,44.18 3.7,9.48 10.03,16.83 19.06,21.91 9.02,5.14 20.04,7.72 33.07,7.72 22.27,0 38.18,-5.1 47.66,-15.22 9.49,-10.17 14.19,-29.67 14.19,-58.59l0 -132.85zm77.82 230.12l0 -166.8 25.4 0 0 23.67c12.21,-18.15 29.88,-27.2 52.97,-27.2 10.07,0 19.28,1.81 27.7,5.4 8.4,3.59 14.73,8.35 18.91,14.2 4.17,5.84 7.12,12.8 8.77,20.84 1.03,5.25 1.56,14.4 1.56,27.47l0 102.42 -28.28 0 0 -101.34c0,-11.52 -1.07,-20.15 -3.27,-25.82 -2.2,-5.68 -6.11,-10.24 -11.67,-13.66 -5.58,-3.38 -12.17,-5.1 -19.66,-5.1 -12,0 -22.35,3.82 -31.08,11.48 -8.72,7.6 -13.06,22.12 -13.06,43.44l0 91 -28.29 0zm178.75 -197.97l0 -32.15 28.29 0 0 32.15 -28.29 0zm0 197.97l0 -166.8 28.29 0 0 166.8 -28.29 0zm78.16 0l0 -144.95 -25.08 0 0 -21.85 25.08 0 0 -17.68c0,-11.2 0.96,-19.49 2.94,-24.9 2.73,-7.29 7.45,-13.23 14.31,-17.78 6.8,-4.56 16.39,-6.82 28.71,-6.82 7.98,0 16.75,0.98 26.4,2.85l-4.23 24.75c-5.9,-1.03 -11.42,-1.56 -16.65,-1.56 -8.58,0 -14.63,1.83 -18.22,5.46 -3.54,3.65 -5.3,10.45 -5.3,20.42l0 15.26 32.46 0 0 21.85 -32.15 0 0 144.95 -28.27 0zm71.94 -83.4c0,-30.8 8.57,-53.62 25.76,-68.46 14.31,-12.32 31.82,-18.47 52.44,-18.47 22.88,0 41.62,7.49 56.19,22.48 14.52,14.96 21.8,35.68 21.8,62.1 0,21.41 -3.21,38.24 -9.65,50.5 -6.42,12.27 -15.8,21.8 -28.12,28.6 -12.26,6.8 -25.71,10.18 -40.22,10.18 -23.35,0 -42.2,-7.45 -56.62,-22.39 -14.4,-14.94 -21.58,-36.48 -21.58,-64.54zm28.92 0.05c0,21.32 4.66,37.28 13.98,47.84 9.38,10.6 21.1,15.91 35.3,15.91 14.04,0 25.71,-5.31 35.09,-15.97 9.32,-10.66 13.98,-26.89 13.98,-48.69 0,-20.57 -4.72,-36.16 -14.1,-46.7 -9.36,-10.61 -21.05,-15.92 -34.97,-15.92 -14.2,0 -25.92,5.26 -35.3,15.8 -9.32,10.56 -13.98,26.46 -13.98,47.73zm160.12 83.35l0 -166.8 25.38 0 0 25.54c6.48,-11.82 12.48,-19.65 18,-23.4 5.52,-3.8 11.57,-5.67 18.16,-5.67 9.53,0 19.22,3 29.08,8.94l-10.07 26.09c-6.86,-3.86 -13.71,-5.79 -20.57,-5.79 -6.15,0 -11.67,1.87 -16.55,5.56 -4.87,3.71 -8.36,8.85 -10.44,15.44 -3.16,10.01 -4.72,20.99 -4.72,32.94l0 87.15 -28.27 0zm107.33 0l0 -166.8 25.4 0 0 23.57c5.2,-8.15 12.15,-14.73 20.83,-19.65 8.68,-4.99 18.54,-7.45 29.62,-7.45 12.32,0 22.44,2.56 30.32,7.66 7.88,5.14 13.44,12.26 16.65,21.47 13.29,-19.45 30.49,-29.13 51.69,-29.13 16.62,0 29.41,4.54 38.3,13.71 8.95,9.15 13.45,23.25 13.45,42.26l0 114.36 -28.28 0 0 -104.99c0,-11.25 -0.97,-19.39 -2.78,-24.37 -1.84,-4.98 -5.14,-8.94 -10.03,-12 -4.82,-3.05 -10.49,-4.56 -16.97,-4.56 -11.78,0 -21.54,3.92 -29.3,11.69 -7.77,7.81 -11.63,20.3 -11.63,37.44l0 96.79 -28.27 0 0 -108.25c0,-12.53 -2.31,-21.97 -6.91,-28.23 -4.61,-6.27 -12.17,-9.44 -22.62,-9.44 -7.92,0 -15.26,2.1 -22,6.28 -6.75,4.17 -11.64,10.28 -14.68,18.36 -3,8.04 -4.5,19.66 -4.5,34.82l0 86.46 -28.29 0zm381.49 -54l29.25 3.86c-4.57,16.98 -13.08,30.21 -25.5,39.59 -12.44,9.36 -28.29,14.08 -47.62,14.08 -24.32,0 -43.61,-7.5 -57.86,-22.5 -14.25,-14.94 -21.36,-35.99 -21.36,-63.04 0,-27.96 7.17,-49.7 21.59,-65.13 14.4,-15.48 33.1,-23.19 56.08,-23.19 22.22,0 40.38,7.54 54.46,22.71 14.09,15.15 21.16,36.47 21.16,63.95 0,1.66 -0.05,4.18 -0.15,7.49l-124.22 0c1.07,18.28 6.21,32.3 15.53,42 9.27,9.69 20.9,14.58 34.77,14.58 10.33,0 19.17,-2.74 26.45,-8.2 7.34,-5.46 13.13,-14.19 17.42,-26.2zm-92.56 -45.31l92.87 0c-1.22,-14.04 -4.81,-24.53 -10.66,-31.56 -8.94,-10.87 -20.61,-16.33 -34.92,-16.33 -12.97,0 -23.83,4.34 -32.68,13.03 -8.77,8.67 -13.66,20.28 -14.61,34.86zm146.29 49.49l27.95 -4.49c1.56,11.19 5.96,19.75 13.12,25.75 7.18,5.96 17.25,8.96 30.11,8.96 13.02,0 22.65,-2.64 28.97,-7.93 6.27,-5.25 9.44,-11.46 9.44,-18.59 0,-6.38 -2.85,-11.42 -8.46,-15.05 -3.98,-2.52 -13.61,-5.69 -28.93,-9.59 -20.68,-5.19 -34.98,-9.7 -43.01,-13.5 -7.98,-3.86 -14.04,-9.11 -18.16,-15.85 -4.13,-6.71 -6.21,-14.14 -6.21,-22.29 0,-7.44 1.71,-14.3 5.08,-20.62 3.44,-6.32 8.04,-11.57 13.88,-15.75 4.4,-3.21 10.39,-5.94 17.94,-8.2 7.6,-2.24 15.7,-3.36 24.37,-3.36 13.07,0 24.53,1.87 34.39,5.67 9.91,3.75 17.19,8.89 21.91,15.32 4.66,6.48 7.92,15.11 9.7,25.92l-27.64 3.86c-1.24,-8.67 -4.87,-15.47 -10.89,-20.35 -5.99,-4.88 -14.46,-7.29 -25.44,-7.29 -12.9,0 -22.16,2.14 -27.68,6.44 -5.52,4.28 -8.31,9.32 -8.31,15.05 0,3.63 1.13,6.95 3.44,9.9 2.29,2.99 5.88,5.52 10.81,7.5 2.85,1.07 11.08,3.48 24.91,7.24 19.92,5.29 33.85,9.68 41.78,13.06 7.92,3.37 14.13,8.35 18.64,14.79 4.55,6.48 6.8,14.52 6.8,24.15 0,9.37 -2.73,18.22 -8.25,26.51 -5.52,8.31 -13.45,14.74 -23.78,19.29 -10.4,4.55 -22.12,6.8 -35.19,6.8 -21.64,0 -38.19,-4.49 -49.55,-13.45 -11.35,-8.99 -18.58,-22.27 -21.74,-39.9z"/>
  </g>
 </g>
</svg>
